<?xml version="1.0" encoding="utf-8"?>
<svg version="1.1" xmlns:xlink="http://www.w3.org/1999/xlink" width="140px" height="33px" xmlns="http://www.w3.org/2000/svg">
  <g transform="matrix(1 0 0 1 -1212 -1011 )">
    <path d="M 0 28  L 0 5  C 0 2.20000000000005  2.20000000000005 0  5 0  L 44.972972972973 0  C 44.972972972973 0  70.1981981981983 0  82.8108108108108 0  C 85.2249819006362 0  87.9741771411783 0  90.9189189136752 0  C 109.19384221627 0  135 0  135 0  C 137.8 0  140 2.20000000000005  140 5  L 140 28  C 140 30.8  137.8 33  135 33  L 90.918918918919 33  L 44.972972972973 33  L 5 33  C 2.20000000000005 33  0 30.8  0 28  Z " fill-rule="nonzero" fill="#169bd5" stroke="none" transform="matrix(1 0 0 1 1212 1011 )" />
  </g>
</svg>