<?xml version="1.0" encoding="utf-8"?>
<svg version="1.1" xmlns:xlink="http://www.w3.org/1999/xlink" width="23px" height="39px" xmlns="http://www.w3.org/2000/svg">
  <g transform="matrix(1 0 0 1 -255 -409 )">
    <path d="M 9.198814281 10.27325  L 9.198814281 35.74025  C 9.198814281 37.52775  10.234593728 38.99025  11.500546388 38.99025  C 12.766499048 38.99025  13.80227861 37.52775  13.80227861 35.74025  L 13.80227861 10.27325  L 19.54049663 18.616  C 20.31618037 19.74375  21.59133993 19.773  22.38773931 18.67775  C 22.7951459 18.11875  23 17.381  23 16.63675  C 23 15.92175  22.81125786 15.21  22.4314722 14.6575  L 12.94603415 0.8645  C 12.566248352 0.312  12.043755167 0  11.500546388 0  C 10.957337609 0  10.434844424 0.312  10.055058626 0.8645  L 0.569620622 14.6575  C -0.206063095 15.77875  -0.187649249 17.57925  0.613353535 18.67775  C 1.409752846 19.773  2.684912429 19.74375  3.460596146 18.616  L 9.198814281 10.27325  Z " fill-rule="nonzero" fill="#6a7070" stroke="none" transform="matrix(1 0 0 1 255 409 )" />
  </g>
</svg>