<?xml version="1.0" encoding="utf-8"?>
<svg version="1.1" xmlns:xlink="http://www.w3.org/1999/xlink" width="23px" height="39px" xmlns="http://www.w3.org/2000/svg">
  <g transform="matrix(1 0 0 1 -284 -405 )">
    <path d="M 9.198814281 28.72675  L 9.198814281 3.25975  C 9.198814281 1.47225  10.234593728 0.00974999999999893  11.500546388 0.00974999999999893  C 12.766499048 0.00974999999999893  13.80227861 1.47225  13.80227861 3.25975  L 13.80227861 28.72675  L 19.54049663 20.384  C 20.31618037 19.25625  21.59133993 19.227  22.38773931 20.32225  C 22.7951459 20.88125  23 21.619  23 22.36325  C 23 23.07825  22.81125786 23.79  22.4314722 24.3425  L 12.94603415 38.1355  C 12.566248352 38.688  12.043755167 39  11.500546388 39  C 10.957337609 39  10.434844424 38.688  10.055058626 38.1355  L 0.569620622 24.3425  C -0.206063095 23.22125  -0.187649249 21.42075  0.613353535 20.32225  C 1.409752846 19.227  2.684912429 19.25625  3.460596146 20.384  L 9.198814281 28.72675  Z " fill-rule="nonzero" fill="#6a7070" stroke="none" transform="matrix(1 0 0 1 284 405 )" />
  </g>
</svg>